<svg width="31" height="31" viewBox="0 0 31 31" fill="none" xmlns="http://www.w3.org/2000/svg">
<g clip-path="url(#clip0)">
<path d="M1.40008 3.75757H29.3989C30.172 3.75757 30.7988 4.38847 30.7988 5.16662V16.909H0.000125885V5.16662C0.000125885 4.38847 0.626928 3.75757 1.40008 3.75757ZM18.1993 13.1515H23.7991C24.5723 13.1515 25.1991 12.5206 25.1991 11.7424C25.1991 10.9642 24.5723 10.3333 23.7991 10.3333H18.1993C17.4262 10.3333 16.7994 10.9642 16.7994 11.7424C16.7994 12.5206 17.4262 13.1515 18.1993 13.1515ZM7.46646 13.6212C8.02421 13.6212 8.52409 13.3725 8.86642 12.981C9.20876 13.3725 9.70863 13.6212 10.2664 13.6212C11.2956 13.6212 12.1329 12.7784 12.1329 11.7424C12.1329 10.7065 11.2956 9.86366 10.2664 9.86366C9.70863 9.86366 9.20876 10.1123 8.86642 10.5039C8.52409 10.1123 8.02421 9.86366 7.46646 9.86366C6.43723 9.86366 5.5999 10.7065 5.5999 11.7424C5.5999 12.7784 6.43723 13.6212 7.46646 13.6212Z" fill="white"/>
<path d="M30.7988 20.6666V25.8333C30.7988 26.6115 30.172 27.2424 29.3989 27.2424H1.40002C0.626867 27.2424 6.67572e-05 26.6115 6.67572e-05 25.8333V20.6666H30.7988Z" fill="white"/>
</g>
<defs>
<clipPath id="clip0">
<rect width="30.7987" height="31" fill="white" transform="matrix(-1 0 0 1 30.7988 0)"/>
</clipPath>
</defs>
</svg>
