<svg width="11" height="11" viewBox="0 0 11 11" fill="none" xmlns="http://www.w3.org/2000/svg">
<g clip-path="url(#clip0)">
<path d="M10.1526 6.9101C10.0012 6.9101 9.87861 7.03273 9.87861 7.18405V9.61649C9.87808 10.0702 9.51048 10.4379 9.05674 10.4384H1.36978C0.916044 10.4379 0.548449 10.0702 0.547914 9.61649V2.47745C0.548449 2.02382 0.916044 1.65611 1.36978 1.65558H3.80222C3.95354 1.65558 4.07618 1.53294 4.07618 1.38162C4.07618 1.23041 3.95354 1.10767 3.80222 1.10767H1.36978C0.613621 1.10852 0.000856116 1.72129 0 2.47745V9.6166C0.000856116 10.3728 0.613621 10.9855 1.36978 10.9864H9.05674C9.8129 10.9855 10.4257 10.3728 10.4265 9.6166V7.18405C10.4265 7.03273 10.3039 6.9101 10.1526 6.9101Z" fill="#484848"/>
<path d="M10.318 0.402597C9.83649 -0.0788606 9.05593 -0.0788606 8.57447 0.402597L3.6869 5.29016C3.65341 5.32366 3.62922 5.36518 3.61659 5.41077L2.97386 7.73116C2.94743 7.8263 2.97429 7.92817 3.04407 7.99805C3.11395 8.06783 3.21582 8.09469 3.31096 8.06836L5.63136 7.42553C5.67695 7.4129 5.71847 7.38871 5.75196 7.35522L10.6394 2.46755C11.1201 1.98577 11.1201 1.20585 10.6394 0.724069L10.318 0.402597ZM4.28383 5.46823L8.28393 1.46803L9.57399 2.75809L5.57378 6.75829L4.28383 5.46823ZM4.02614 5.98533L5.0568 7.01609L3.63115 7.41108L4.02614 5.98533ZM10.252 2.08016L9.96149 2.3707L8.67132 1.08053L8.96197 0.78999C9.2294 0.522561 9.66302 0.522561 9.93045 0.78999L10.252 1.11146C10.519 1.37921 10.519 1.81251 10.252 2.08016Z" fill="#484848"/>
</g>
<defs>
<clipPath id="clip0">
<rect width="11" height="11" fill="white"/>
</clipPath>
</defs>
</svg>
